<svg xmlns="http://www.w3.org/2000/svg" viewBox="0 0 487 264.69"><defs><style>.a{fill:#201613;}</style></defs><path class="a" d="M206.55-45.64C167.86-46.4,130.36-37.89,92-34.76c-12.45,1-25.55-1.67-37.87-1.51-13.78-.07-26.85,1-40.51,1.3-8.44,0-17.83-.86-25.95,1.26-41,13.62-39.11,24-38.69,53.82-4.55,22-6.75,43.37,16.38,60.43C-34,91.4-20.74,99-11.59,106.6c13.94,10.61,32.87,15.63,48.37,24.31,11.66,6,17.78,16.39,26,24.8,13.56,14.07,30.33,26.48,45.29,39.78,24.37,19.52,49.52,25.73,85.08,22.84,41.46-2.28,82.88-.13,123.3-8.54,23.43-4.88,41.72-17,57.37-30.12,15.06-13.79,35.89-24.63,37.82-43.41C418.69,112,399.22,91,393.32,68l0,.19C378.08-4.33,490.1-38.89,392.88-37.35c-62.1-1.21-123.94-8.74-186.33-8.29ZM425.79-28.32l.09-.47a2.15,2.15,0,0,1-.09.47Z" transform="translate(54 45.69)"/></svg>