<svg id="ship2" xmlns="http://www.w3.org/2000/svg" viewBox="0 0 586.03 409.5"><defs><style>.cls-1{fill:#cbc4be;}.cls-2{fill:#863b42;}</style></defs><path class="cls-1" d="M510.25,145h0a5.23,5.23,0,0,0-1.12.27,7.76,7.76,0,0,0-.91.36,16.64,16.64,0,0,0-3.13,2.14c-.78.63-1.53,1.29-2.3,2s-1.35,1.32-2,2l-.59.61c-.57.59-1.25,1.3-1.92,2-1,1.1-2,2.22-3,3.3-1.76,2-3.59,4-5.45,6-1.39,1.4-2.95,3-4.57,4.45s-3.45,3.09-5.37,4.57c-.59.45-1.21.89-1.81,1.31-.23.17-.46.34-.7.5-1,.72-2,1.43-3,2.13-1.7,1.2-3.47,2.36-5.28,3.45-2.1,1.2-4,2.23-6,3.15-1.26.61-2.56,1.21-3.81,1.79l-2.66,1.24-1.49.7c-1.66.79-3.37,1.61-5.08,2.36-2.12.93-4.31,1.76-6.43,2.56l-.25.09-1.46.55c-3.9,1.48-7.94,3-11.85,4.64-2.65,1.11-4.81,2-6.8,2.92l-1.79.79c-1.55.68-3.17,1.39-4.73,2.14-1.23.6-2.32,1.17-3.31,1.73-1.28.73-2.48,1.53-3.71,2.35-1.81,1.22-3.72,2.6-5.84,4.23-1,.77-1.92,1.48-2.81,2.23-.55.47-1.11,1-1.64,1.44l-1.07.93c-1,.84-1.92,1.71-2.85,2.56s-1.75,1.61-2.65,2.39c-2.16,1.89-4,3.37-5.64,4.66l-.22.17c-1.87,1.43-3.8,2.9-5.81,4.19s-4.08,2.64-6,3.92l-1.7,1.16c-1.44,1-2.94,2-4.45,3l-.53.33c-1.16.67-2.22,1.24-3.26,1.76s-2.3,1.08-3.78,1.66h0c-2.36.92-4.81,1.87-7.28,2.59-2.07.53-4.42,1.13-6.75,1.57l-1.66.29c-.59.1-1.21.2-1.81.32l-1.52.31-2,.4-1.12.2-2.19.42c-1.35.29-2.71.62-4.05,1a54.11,54.11,0,0,0-6.56,2.32c-2.32,1-4.56,2-6.66,3-1,.45-1.9,1-2.81,1.47l-.25.14c-1.21.67-2.32,1.31-3.37,2s-1.91,1.27-2.81,1.92l-.05,0c-1.05.75-2,1.44-2.95,2.15l-.67.51c-.7.52-1.42,1.06-2.1,1.61a34.69,34.69,0,0,0-3,2.77,29.88,29.88,0,0,0-2.06,2.43q-.39.51-.75,1c-.27.38-.56.77-.85,1.14a8.87,8.87,0,0,0-.51.74,3.5,3.5,0,0,0-.67,1.56,3,3,0,0,0,.21,1.57,3.24,3.24,0,0,0,1,1.28l.17.1a2.52,2.52,0,0,0,.67.35,7.55,7.55,0,0,0,1,.24,5.71,5.71,0,0,0,.77.09c.54,0,1.09.06,1.64.09l2.46.11c1.43.07,2.92.14,4.38.19l2.33.07c1.59.05,3.23.1,4.85.19l.37,0c1,.06,2,.11,3,.2l.46.05c1,.09,2.05.19,3.08.26a73.42,73.42,0,0,0,7.81.18c1.17-.05,2.36-.17,3.51-.28h.05c.87-.08,1.87-.18,2.84-.32l.86-.13c.87-.14,1.75-.3,2.6-.45l.89-.16c.73-.13,1.48-.29,2.19-.44l1.28-.26c2.69-.54,5.4-1,7.7-1.31,1.05-.17,2.11-.32,3.16-.47l.48-.07.77-.11,1.34-.19c.48-.07.91-.12,1.3-.16l3.29-.33c1.41-.14,2.87-.28,4.3-.44,2.38-.27,4.68-.58,7.43-.95h.09c2.3-.31,4.6-.82,6.82-1.31l.22,0c2.1-.46,4.19-.83,6.2-1.11l.81-.1c1.73-.22,3.5-.27,5.21-.33l2.07-.07c1.79-.09,3.61-.22,5.37-.35l2.07-.15c1.21-.08,2.46-.17,3.72-.23.62,0,1.26-.05,1.87-.07l1.53-.05,1.68-.07c1.79-.07,3.65-.14,5.46-.32l.63-.06c.39,0,.79-.07,1.19-.13h.07l1-.15,1-.15c1-.14,2-.32,3-.48l.87-.15c1.2-.2,2.41-.43,3.58-.65s2.3-.44,3.45-.63c1-.17,1.88-.3,2.72-.42.56-.08,1.12-.14,1.64-.2a14.52,14.52,0,0,1,1.48-.08h.59l1.43,0c2.21,0,4.46.21,6.63.37l.39,0c2.23.17,4.64.25,7.36.26,2.51,0,5.05-.11,7.5-.22h.18c2.33-.1,4.83-.23,7.38-.5,4.33-.46,8.71-1.06,12.95-1.64l2-.28,6.89-.94,1.89-.25,1.89-.25c1.58-.22,2.78-.4,3.9-.6,2-.35,4.24-.84,6.91-1.53,1.37-.35,2.74-.77,4.06-1.18.91-.27,2.08-.65,3.23-1.12a35.58,35.58,0,0,0,6.7-3.52c.43-.28.88-.61,1.38-1a17.89,17.89,0,0,0,2.18-2.1,16.33,16.33,0,0,0,1.43-1.88c.39-.55.77-1.13,1.17-1.78.7-1.13,1.29-2.31,1.94-3.62s1.13-2.33,1.6-3.42c.24-.58.45-1.09.61-1.56a8.17,8.17,0,0,0,.39-3.87c-.12-.88-.31-1.75-.5-2.6-.06-.24-.11-.48-.16-.73-.44-2-.84-4.24-1.28-7.13l-.15-1.05c-.11-.81-.23-1.64-.38-2.45L529,219c-.14-.73-.28-1.46-.41-2.2-.07-.35-.13-.7-.19-1.05-.14-.78-.28-1.6-.44-2.39-.21-1-.47-2.3-.71-3.64-.29-1.62-.47-3.29-.63-4.9-.08-.71-.15-1.42-.23-2.13-.53-4.48-1.15-9-1.75-13.43l-.15-1.06q-1-7.08-1.93-14.16l-.95-6.9c-.14-1-.32-2.08-.58-3.38-.06-.25-.11-.5-.15-.76-.16-.76-.31-1.56-.51-2.33-.25-1-.52-2-.82-3.07l-.06-.23a30.59,30.59,0,0,0-1-3.3,26.82,26.82,0,0,0-2-3.9,14.2,14.2,0,0,0-1.48-2.21,2.91,2.91,0,0,0-2.49-2.84,13.59,13.59,0,0,0-2.18-.06Z" transform="translate(54.22 64.9)"/><path class="cls-2" d="M390.87-23.53a3.47,3.47,0,0,0-1.33,2.17,3.65,3.65,0,0,0,.52,2.64l.55.66a3.13,3.13,0,0,0,1.48.78c1,.32,2,.65,2.94,1,1.42.55,2.83,1.09,4.25,1.61l3.49,1.21c2.48.93,5,1.89,7.35,3s4.94,2.34,7.47,3.33c3.18,1.27,6.43,2.29,9.69,3.28s6.56,2,9.81,3.08c1.51.51,3,1,4.52,1.56,2.62,1,5.22,2,7.83,3,3,1.13,5.89,2.38,8.83,3.6,1.49.61,3,1.26,4.43,1.95s2.81,1.45,4.23,2.16,2.87,1.45,4.26,2.26,2.67,1.63,4,2.51c1.57,1.16,3.11,2.37,4.6,3.63A37.88,37.88,0,0,1,483.88,24c.41.52.8,1,1.16,1.6.49.77.94,1.56,1.39,2.35.86,1.52,1.63,3.11,2.4,4.68a63.48,63.48,0,0,1,3.3,8.11c.49,1.56.94,3.13,1.39,4.7s.85,3.16,1.31,4.73c.91,3.13,1.9,6.23,2.75,9.37s1.61,6,2.26,9.07c.66,3.61,1.25,7.23,1.81,10.86.58,3.78.9,7.6,1.22,11.41.61,7.24,1.1,14.5,1.63,21.75.09,1.26.19,2.52.27,3.78.08,1.09.1,2.19.12,3.29,0,2-.05,4.06-.14,6.09a80.28,80.28,0,0,1-1.52,10.93q-1.16,5.59-2.8,11c-.1.34-.21.68-.31,1a113.89,113.89,0,0,1-4,11.29c-.84,1.91-1.72,3.81-2.7,5.65s-1.88,3.41-2.88,5.08c-.91,1.42-1.83,2.82-2.79,4.21s-2.23,3-3.33,4.51-2.1,2.83-3.13,4.25-2,2.7-3.11,4-2.36,2.6-3.53,3.91l-3.51,3.88c-1.1,1.21-2.16,2.48-3.24,3.72s-2.3,2.73-3.41,4.14c-2.2,2.81-4.33,5.7-6.44,8.59s-4.11,5.6-6.15,8.42c-2.18,3-4.16,6.15-6.29,9.18s-4,5.86-6,8.8c-1.82,2.69-3.65,5.37-5.39,8.12s-3.45,5.57-5.16,8.37c-2.16,3.39-4.34,6.76-6.44,10.2q-1.35,2.2-2.67,4.43a47.21,47.21,0,0,0-2.5,5.1A96.75,96.75,0,0,0,413.64,285c-.65,2.09-1.3,4.17-1.91,6.27-.53,1.79-1,3.62-1.44,5.43-.93,3.59-1.69,7.22-2.41,10.86-.36,1.8-.74,3.6-1.05,5.41-.33,2-.67,4-1,6-.55,3.48-1,7-1.46,10.48-.45,3.33-.69,6.7-.92,10.06l-.06,1,0,.93a3.58,3.58,0,0,0,.56,1.71,3.3,3.3,0,0,0,2,1.44,3,3,0,0,0,2.45-.53l.61-.58a3.5,3.5,0,0,0,.72-1.59c.1-1.72.24-3.44.36-5.17,0-.8.14-1.6.23-2.39s.16-1.76.27-2.63c.46-3.6.95-7.19,1.5-10.78s1.18-7.22,1.89-10.8c.74-3.78,1.51-7.55,2.45-11.28.43-1.72.87-3.42,1.33-5.13.41-1.55.89-3.07,1.36-4.6a108.29,108.29,0,0,1,4.08-11.33c.46-1,.93-2.07,1.42-3.11a30.73,30.73,0,0,1,1.5-2.69c.95-1.61,1.93-3.2,2.9-4.8,1.35-2.16,2.74-4.29,4.11-6.44,1.51-2.37,3-4.78,4.42-7.17.95-1.52,1.9-3,2.88-4.53s2-2.95,3-4.42c2-3,4-5.94,6-8.88,1.06-1.52,2.13-3,3.16-4.57s2.09-3.12,3.15-4.66,2.18-3,3.28-4.56,2-2.75,3-4.12c2.08-2.83,4.17-5.66,6.29-8.45s4.43-5.43,6.71-8.09c1.14-1.33,2.33-2.61,3.5-3.9l1.69-1.88c.55-.62,1.15-1.21,1.71-1.83a48.84,48.84,0,0,0,3.16-3.84c1.09-1.47,2.15-2.95,3.25-4.42,1.92-2.56,3.84-5.11,5.63-7.77a100.41,100.41,0,0,0,5.26-8.84c.77-1.45,1.47-2.93,2.15-4.43s1.32-2.93,1.87-4.45c1.09-3,2.08-6.09,3-9.17l-.06.21c.07-.24.15-.48.22-.72l0-.13,0,.11a110,110,0,0,0,4.47-20.78c.21-1.92.26-3.88.34-5.82.07-1.78.07-3.55,0-5.33-.05-1.94-.21-3.88-.35-5.82l-.39-5.34c-.27-3.64-.53-7.27-.81-10.91s-.56-7.55-1-11.31c-.2-1.93-.44-3.85-.7-5.77s-.59-3.76-.88-5.64c-.61-3.91-1.39-7.8-2.35-11.63-.88-3.52-1.9-7-2.94-10.48-.5-1.68-1-3.35-1.47-5s-1-3.49-1.47-5.23-1-3.36-1.61-5-1.35-3.28-2.09-4.89c-.86-1.87-1.79-3.71-2.72-5.54A50.19,50.19,0,0,0,490,21.2a22.23,22.23,0,0,0-1.91-2.39c-.61-.71-1.25-1.38-1.89-2a41.44,41.44,0,0,0-3.61-3.16c-1.49-1.19-3-2.37-4.54-3.45a54.66,54.66,0,0,0-4.72-2.94c-1.63-.9-3.3-1.74-5-2.58s-3.17-1.64-4.8-2.36-3.17-1.36-4.77-2-3.35-1.4-5-2.07c-1.26-.51-2.54-1-3.8-1.46l-4-1.56c-2.84-1.1-5.73-2.11-8.62-3.06l-3.84-1.25c-1.35-.42-2.7-.81-4.05-1.22-2.54-.77-5.08-1.53-7.58-2.41-3.45-1.32-6.79-2.91-10.15-4.46-1.76-.81-3.58-1.46-5.38-2.16-2.12-.84-4.28-1.54-6.42-2.3s-4.37-1.67-6.59-2.39a2.19,2.19,0,0,0-.81-.08,3.21,3.21,0,0,0-1.64.61Z" transform="translate(54.22 64.9)"/><path class="cls-1" d="M60.73-49.54l-1.57-.1c-1.11-.07-2.26-.08-3.36-.1l-1.21,0-1.69,0-3.55-.07-3.42-.08-1.51,0L42.78-50c-1,0-1.93,0-2.89,0-1.94,0-3.94,0-5.92.09l-5,.29c-6.57.42-12.87,1.1-18.72,2a89.9,89.9,0,0,0-9.94,2c-3.57,1-6.46,1.88-9.1,2.81a90.35,90.35,0,0,0-8.87,3.75A64,64,0,0,0-25-35c-1.4.89-2.74,1.81-4,2.72a37.85,37.85,0,0,0-2.94,2.41A31.7,31.7,0,0,0-36.87-24a41.93,41.93,0,0,0-3.25,5.8c-.88,1.83-1.7,3.71-2.49,5.53l-.13.3c-.83,1.91-1.6,3.9-2.29,5.91A48.82,48.82,0,0,0-46.62,0l0,.07-.3,1.59c-.1.54-.2,1.07-.31,1.6s-.28,1.3-.44,1.94L-48,6.33c-.42,1.9-.92,3.81-1.4,5.67l-.13.49c-.06.24-.12.48-.19.72-.2.78-.42,1.58-.56,2.37-.19,1-.36,2.12-.54,3.43-.21,1.47-.31,3-.4,4.45,0,.65-.09,1.3-.14,1.94-.37,4.57-.89,9-1.36,12.75s-.68,7.45-.89,11.08l-.12,2.08c-.11,1.69-.23,3.91-.28,6.14v.33c0,1,0,2,0,2.94v.61c0,.89,0,1.8,0,2.7-.09,2.18-.18,4.32-.22,6.48,0,1.67,0,3.37.11,5,0,.41,0,.82,0,1.22,0,1.18.07,2.36.1,3.54.07,2.49.13,5.07.34,7.6l.1,1.22c.12,1.49.24,3,.42,4.53.28,2.29.51,4,.73,5.67v0c.28,2.15.62,4.44,1.09,6.74.42,2,.77,4,1,6l.15,1c.24,1.71.5,3.48.79,5.22.14.81.3,1.62.45,2.43.24,1.23.48,2.49.66,3.74l.15,1,.1.7c.12.93.25,1.88.4,2.91a53.17,53.17,0,0,0,3.08,11.86,26.39,26.39,0,0,0,1.43,3,8.74,8.74,0,0,0,1.21,1.84A13,13,0,0,0-40.56,147a16.49,16.49,0,0,0,2.47,1.69,10.83,10.83,0,0,0,1.6.78c.79.28,1.44.5,2.05.69a21.92,21.92,0,0,0,4.26.73H-30c.43,0,.87.09,1.36.12,1.1.08,2.22.12,3.21.16,2.19.08,4.1.06,5.84,0a19.43,19.43,0,0,0,2-.28l.73-.13,1.47-.27c1.54-.29,3.07-.63,4.56-.95l.59-.13c1.41-.31,2.78-.67,4.06-1.05a48.48,48.48,0,0,0,8.6-3.48c1.39-.73,2.43-1.3,3.36-1.87,1.1-.67,2.17-1.38,3.21-2.06l.21-.15c1.42-.93,2.79-1.93,4.11-2.89l1.21-.87c.91-.62,1.84-1.24,2.75-1.83,1.2-.79,2.44-1.61,3.63-2.44,2.23-1.57,4.43-3.26,6.74-5.19a52,52,0,0,0,5.17-5,64.17,64.17,0,0,0,4.74-5.84c.81-1.12,1.55-2.28,2.28-3.4.45-.7.89-1.39,1.36-2.08,1.21-1.81,2.43-3.7,3.61-5.59s2.29-3.89,3.22-5.78c.82-1.66,1.53-3.37,2.22-5l.39-.93c.46-1.1,1-2.21,1.44-3.29s.83-1.87,1.23-2.81.89-2.17,1.31-3.23c.33-.86.67-1.71,1-2.57l.18-.44c.78-1.87,1.58-3.81,2.2-5.75.51-1.6.92-3.23,1.32-4.82l.45-1.77.37-1.36c.12-.38.22-.75.33-1.13l.1-.33.05-.18,0-.16s0,0,0,0l.05-.15,0-.16.06-.21.06-.21s0,0,0-.07c.51-1.73,1.07-3.62,1.69-5.78l.06-.21a49.25,49.25,0,0,0,1.73-6.89c.19-1.28.34-2.59.48-3.85.09-.79.18-1.59.28-2.39.3-2.38.73-4.7,1.07-6.45.14-.68.26-1.36.39-2,.24-1.33.49-2.7.81-4,.35-1.49.7-3,1.06-4.45.22-.89.43-1.78.65-2.67s.45-1.91.67-2.86c.3-1.3.61-2.59.92-3.88.54-1.74,1.1-3.28,1.7-4.7.94-2.2,1.74-4,2.5-5.64.67-1.45,1.49-2.89,2.29-4.29l.49-.87c.32-.56.7-1.12,1.06-1.67l.52-.77C79.61,1.22,80,.68,80.4.16l.36-.47A150.69,150.69,0,0,1,91.84-12.63l.27-.15A14.37,14.37,0,0,0,95.4-15.3c.31-.34.65-.68,1-1s.73-.72,1.06-1.08a10.76,10.76,0,0,0,2.11-3.21,20.81,20.81,0,0,0,1-3.37,12.79,12.79,0,0,0,.19-2.47c0-.18,0-.36,0-.53a24.93,24.93,0,0,0-.06-2.85,14.77,14.77,0,0,0-.69-3.72,16,16,0,0,0-3.43-5.77A17.57,17.57,0,0,0,93.45-42a26.67,26.67,0,0,0-4.39-2.33,50.44,50.44,0,0,0-9.45-2.83c-3.41-.67-6.77-1.1-10.5-1.55-3.07-.37-5.81-.64-8.38-.82Z" transform="translate(54.22 64.9)"/><path class="cls-2" d="M39.82-64.58a3.21,3.21,0,0,0-1.69,1.69c-.59,1.37-1.23,2.73-1.9,4.08s-1.72,2.72-2.55,4.09a45.48,45.48,0,0,0-2.72,5c-.71,1.58-1.32,3.18-1.9,4.81s-1.13,3.22-1.59,4.85C26.9-38.06,26.4-36,26-34c-.32,1.71-.53,3.45-.69,5.18-.34,3.77-.56,7.54-.78,11.31-.07,1.18-.11,2.36-.23,3.54s-.25,2.29-.4,3.43c-.29,2.18-.73,4.35-1.18,6.51-.4,1.7-.8,3.4-1.23,5.1s-1,3.62-1.6,5.42c-1.15,3.54-2.42,7-3.63,10.56-1.13,3.31-2,6.68-3,10a47.46,47.46,0,0,1-1.92,5c-.7,1.58-1.48,3.12-2.25,4.67s-1.38,3-2,4.54C6.31,43.15,5.52,45,4.72,46.89,3.3,50.21,1.79,53.49.35,56.8Q-2,62.23-4.41,67.63C-5.19,69.4-5.94,71.17-6.66,73s-1.26,3.41-1.83,5.13c-1.18,3.56-2.16,7.16-3,10.79q-.74,3.3-1.41,6.61c-.2,1-.33,1.91-.5,2.87s-.31,1.88-.47,2.82c-.62,3.72-1.28,7.43-1.88,11.16s-.88,7.22-1.27,10.83q-.62,5.83-1.07,11.68c-.15,2-.26,3.9-.37,5.84s-.09,3.72,0,5.58a32.5,32.5,0,0,0,.69,5.71A38.13,38.13,0,0,0-16,157.52c.75,2,1.61,3.93,2.48,5.87q2.41,5.36,5,10.64t5.17,10.46c.85,1.7,1.81,3.37,2.73,5s2,3.42,3.08,5.12C4.64,198.11,6.83,201.54,9,205s4.59,6.58,7.06,9.78c1.35,1.75,2.83,3.44,4.28,5.12,1.28,1.48,2.57,3,3.9,4.41s2.77,3,4.08,4.5,2.82,3.34,4.22,5c1.19,1.44,2.45,2.86,3.7,4.27s2.52,2.92,3.88,4.31c1.5,1.55,3,3.07,4.58,4.59.78.76,1.6,1.49,2.4,2.23l2.36,2.21c1.4,1.31,2.75,2.67,4.12,4s2.88,2.75,4.31,4.14c3,3,6.09,5.95,9.07,9,1.32,1.34,2.61,2.7,4,4s2.77,2.84,4.25,4.19,3.14,2.87,4.75,4.27,3.28,2.81,4.92,4.22,3.18,2.71,4.83,4c1.94,1.53,4,3,6,4.41,1.87,1.28,3.78,2.51,5.75,3.67a35.2,35.2,0,0,0,6.67,3,3.59,3.59,0,0,0,4.37-1.85,2.68,2.68,0,0,0-.23-2.32,3.53,3.53,0,0,0-2-1.48c-.61-.2-1.2-.42-1.8-.66-1-.46-2-1-3-1.51-1.17-.66-2.32-1.37-3.44-2.1-2.1-1.38-4.15-2.81-6.17-4.28-3.16-2.49-6.18-5.1-9.23-7.69-1.53-1.3-3-2.63-4.5-4s-3.06-2.82-4.52-4.29-2.72-2.7-4-4.08-2.82-2.92-4.27-4.35q-4.45-4.41-9-8.75c-1.54-1.45-3-2.95-4.54-4.42-1.35-1.32-2.73-2.59-4.11-3.88s-3-2.77-4.4-4.22L45,238.14c-.79-.8-1.51-1.66-2.26-2.49-1.34-1.5-2.65-3-4-4.53s-2.33-2.8-3.52-4.19c-.64-.76-1.26-1.53-1.93-2.26L31,222.13c-1.46-1.61-2.92-3.21-4.36-4.84s-3.07-3.56-4.57-5.36c-1.18-1.54-2.35-3.07-3.51-4.62s-2.25-3.23-3.33-4.86S13.08,199,12,197.3s-2.16-3.44-3.23-5.16-2.07-3.39-3.07-5.1-1.87-3.42-2.79-5.13-1.71-3.46-2.55-5.19-1.68-3.35-2.51-5q-3.07-6.26-5.92-12.59c-.39-.92-.78-1.85-1.14-2.79s-.74-2-1.07-2.94a26.36,26.36,0,0,1-1.2-5.37,80.47,80.47,0,0,1,.26-11.62c.25-3.62.55-7.23.94-10.83.22-2.13.45-4.26.66-6.4.19-1.8.42-3.59.65-5.39.12-1,.31-2,.47-3,.13-.81.27-1.62.41-2.43l1-5.91c.26-1.53.51-3.06.77-4.59s.56-3,.87-4.54q.63-2.79,1.29-5.57c.44-1.83,1-3.63,1.51-5.43A96.26,96.26,0,0,1,1.21,71.79c3-6.91,6.1-13.77,9.11-20.67.79-1.83,1.58-3.66,2.35-5.49.68-1.63,1.3-3.28,2-4.9s1.48-3.09,2.25-4.62c.36-.73.67-1.47,1-2.21s.77-1.75,1.11-2.64c.62-1.63,1.09-3.3,1.61-5s1-3.33,1.47-5c1.08-3.47,2.38-6.87,3.53-10.32.6-1.82,1.23-3.64,1.76-5.48S28.37,2,28.8.19c.46-1.93.88-3.86,1.25-5.81.33-1.75.67-3.48.88-5.24.09-.8.19-1.59.27-2.38s.15-1.88.21-2.81c.11-1.94.22-3.89.34-5.82.23-3.63.49-7.26,1-10.86.07-.48.16-1,.25-1.44a81.42,81.42,0,0,1,2.38-8.19c.48-1.38,1-2.77,1.55-4.13A35.89,35.89,0,0,1,38.65-50c.94-1.63,2-3.2,3-4.81a50.63,50.63,0,0,0,3.09-6.16c.66-1.51-.48-3.28-2.22-3.8a4.57,4.57,0,0,0-.9-.15,4,4,0,0,0-1.78.31ZM-8,159.27h0Z" transform="translate(54.22 64.9)"/></svg>