<svg id="Layer_2" data-name="Layer 2" xmlns="http://www.w3.org/2000/svg" viewBox="0 0 228.2 180.44"><defs><style>.cls-1{fill:#b77d72;}.cls-2{fill:#324e53;}</style></defs><path class="cls-1" d="M323.8,131.56h-.63c-1.17,0-2.22.07-3.2.15l-.81.06-.26,0c-.75,0-1.6.11-2.42.2a33.73,33.73,0,0,0-7.1,1.52,63.06,63.06,0,0,0-6.65,2.82,43.19,43.19,0,0,0-5.94,3.37l-1.26.87-.28.19c-1.3.89-2.62,1.79-3.88,2.73l-.09.06a39.74,39.74,0,0,0-3.19,2.53c-.72.66-1.43,1.33-2.12,2-1.58,1.52-3.1,3.14-4.57,4.71-1.31,1.4-2.67,2.85-4.07,4.23s-2.4,2.26-3.46,3.11c-1.31.91-2.67,1.77-4,2.61l-.35.23-.95.6-.36.23c-.82.53-1.68,1.08-2.51,1.64l-.65.46c-.67.46-1.33.93-2,1.34-1.77,1.05-3.56,2.18-5.33,3.34-.86.56-1.7,1.13-2.55,1.7a26.37,26.37,0,0,1-2.69,1.54c-.52.27-1.06.53-1.59.77L250,175l-.25.12-.17.09c-.75.36-1.53.73-2.3,1.08a39.34,39.34,0,0,0-5,2.63l-.69.43c-1.29.81-2.75,1.72-4.11,2.67-.93.65-1.9,1.36-2.86,2.12l-.77.62-.14.11c-.3.25-.59.49-.89.72-.83.6-1.86,1.35-2.81,2.13s-1.62,1.37-2.28,2a30.6,30.6,0,0,0-2.35,2.29c-.82.88-1.57,1.83-2.29,2.75l-.26.32a39.18,39.18,0,0,0-3.48,5.25,53,53,0,0,0-3,6.39,44.84,44.84,0,0,0-1.61,5.5l-.11.46c-.59,2.39-1,4.31-1.36,6.06-.11.53-.21,1.06-.32,1.59l0,.13-.27,1.35c-.24,1.21-.39,2.43-.55,3.87a55.67,55.67,0,0,0-.25,6.29v0c0,1.9,0,4,.17,6.14l.06.9c.11,1.6.24,3.42.29,5.18s.19,3.36.33,4.87l0,.43c0,.28,0,.56.07.84s.06.74.08,1.11v.07c0,.57.08,1.16.15,1.74s.2,1.44.32,2.14l0,.22c0,.22.08.44.11.66l.09.78a59.69,59.69,0,0,0,.93,6c.08.38.16.75.25,1.13l.07.33c.26,1.19.55,2.52.91,3.81s.92,2.83,1.4,4.19l.22.62c.09.64.16,1.14.25,1.6a17.34,17.34,0,0,0,.67,2.34,27.47,27.47,0,0,0,1.8,3.9l.37.71.35.69a15.21,15.21,0,0,0,1.55,2.64,10.65,10.65,0,0,0,1.95,2c.6.46,1.22.91,1.83,1.36l.54.42c.71.55,1.44,1.12,2.22,1.61s1.69,1,2.53,1.38a69.52,69.52,0,0,0,6.37,2.94,46.22,46.22,0,0,0,5.55,1.63l.58.15,1.47.37c1.49.38,3,.78,4.58,1.1a36.63,36.63,0,0,0,4.12.55c1,.1,2.23.2,3.43.26,2.46.1,4.94.13,7,.13h9.64c1.14,0,2.49,0,3.88,0,2.85-.08,5.2-.17,7.41-.31,1.11-.06,2.22-.14,3.33-.22l3.14-.22c2.59-.16,4.77-.27,7-.31s4.44,0,6.61,0h2.11A244.09,244.09,0,0,1,333.45,299l1.65.19c.9.1,1.83.21,2.75.3l.72.06,3.63.33c2.43.22,5.09.52,8.37.92,2.16.32,4.3.68,6.32,1,1.76.3,3.54.71,5.26,1.1l1.46.33c1.42.32,2.85.68,4.23,1l2,.49c1,.26,2.09.49,3.11.72s2.05.45,3.07.7l1.25.32c.61.16,1.25.33,1.88.47l3.32.79,3.7.91,2.36.59c2.46.61,4.51,1.06,6.44,1.41,2.56.47,5.1.75,7.25,1,2.55.25,5,.38,7.39.38,1.77,0,3.52-.07,5.19-.21,1.36-.12,2.73-.3,4.07-.54a18.47,18.47,0,0,0,2.84-.82,24.34,24.34,0,0,0,3.51-1.54,23.6,23.6,0,0,0,3.33-2.27,19,19,0,0,0,2.23-2,22.13,22.13,0,0,0,2.3-3,20,20,0,0,0,1.49-2.7c.47-1,1-2.11,1.41-3.21a24.21,24.21,0,0,0,.83-2.54c.18-.62.36-1.23.55-1.84l.26-.83a25.61,25.61,0,0,0,.61-2.76,24.49,24.49,0,0,0,.4-3.68c0-.86,0-1.75,0-2.73a4.9,4.9,0,0,0-.07-.77c0-.12,0-.25-.05-.37,0-.32-.06-.66-.07-1.1,0-.65,0-1.29,0-2,0-.22,0-.43,0-.65s.05-.49.07-.74l.27-2.9.17-1.82c.12-1.34.19-2.8.2-4.62l0-.14,0-.15c.15-1,.25-2,.35-3l.06-.59c.05-.53.09-1.06.12-1.57v-.14c0-.38.05-.75.08-1.13.09-1,.16-2,.22-3s.06-2,.05-3v-.21c0-1.1,0-2.18-.06-3.28a36.39,36.39,0,0,0-.39-3.91A21.63,21.63,0,0,0,438,241c-.86-2-1.8-4.09-2.86-6.1-.63-1.19-1.31-2.4-1.95-3.56l-.09-.15-.61-1.1a49.33,49.33,0,0,0-3.08-4.86c-1.17-1.63-2.43-3.21-3.64-4.74l-.17-.21c-1.7-2.14-3.26-4-4.77-5.69-.87-1-1.85-1.88-2.8-2.76l-.09-.08c-.49-.45-1-.92-1.47-1.39s-1.15-1.15-1.7-1.71c-.86-.88-1.84-1.88-2.84-2.79a27.85,27.85,0,0,0-5.81-4c-.74-.39-1.51-.73-2.26-1.07h0l-.6-.27c-.89-.4-1.77-.81-2.75-1.27l-.15-.07-.55-.26c-.73-.35-1.48-.7-2.25-1-1.24-.51-2.52-1-3.83-1.49l-2.08-.71-.11,0-1.45-.49-.85-.29c-.92-.32-1.88-.65-2.84-.94l-1.87-.55-.12,0c-1.71-.49-3.48-1-5.17-1.65-1.5-.64-3.1-1.34-4.64-2.17s-3-1.75-4.38-2.65l-.23-.15c-1-.64-2.09-1.25-3-1.74l-.07,0c-.58-.32-1.19-.66-1.77-1-1.24-.72-2.52-1.57-4-2.65a18.06,18.06,0,0,1-2.3-2.25c-.54-.7-1-1.32-1.38-1.89a14.55,14.55,0,0,1-1.13-2,40.3,40.3,0,0,1-1.72-5.23c-.22-.86-.43-1.73-.63-2.6l-.06-.22c-.23-1-.47-2-.72-2.94l-.45-1.79,0-.07c-.3-1.26-.62-2.55-1-3.81-.3-1-.57-2-.83-2.95l0-.09c-.18-.67-.36-1.33-.55-2-.27-.94-.64-2.17-1.12-3.37a12.68,12.68,0,0,0-1.24-2.54c-.42-.61-.9-1.2-1.36-1.77l-.07-.08-1.05-1.32-.92-1.2a39.06,39.06,0,0,0-2.93-3.57,30.2,30.2,0,0,0-5.43-4.53,20.76,20.76,0,0,0-6.32-2.72l-.37-.08c-.75-.18-1.53-.37-2.31-.5a21.18,21.18,0,0,0-3.37-.25Z" transform="translate(-211.85 -131.56)"/><path class="cls-2" d="M438.62,281.39a4.9,4.9,0,0,0-.07-.77c0-.12,0-.25-.05-.37,0-.32-.06-.66-.07-1.1s0-.8,0-1.21l-.49-.37a3.92,3.92,0,0,0-1.63-.5L436,277c-.16-.08-.32-.18-.48-.28a31.53,31.53,0,0,1-4.16-4.33c-.59-.75-1.2-1.49-1.8-2.23-.91-1.19-1.75-2.42-2.6-3.65s-1.91-2.66-2.81-4a69.46,69.46,0,0,1-4.61-8.58c-.61-1.27-1.2-2.55-1.78-3.83-1.18-2.79-2.13-5.68-3.09-8.55-1.06-3.18-2-6.41-3.16-9.55s-2.49-6.27-3.59-9.46-2.28-6.27-3.48-9.38c-1.29-3.36-2.77-6.65-4.24-9.94-.8-1.79-1.71-3.55-2.68-5.27-.66-1.19-1.36-2.37-2.08-3.52s-1.65-2.56-2.54-3.8-1.81-2.47-2.72-3.7c-1.95-2.68-4-5.26-6.13-7.84.2.25.41.5.61.76a52.35,52.35,0,0,0-7.35-7.83,51.5,51.5,0,0,0-4.57-3.3,46.84,46.84,0,0,0-4-2.67,28.53,28.53,0,0,0-4.65-1.9,25.37,25.37,0,0,0-4-1,22.66,22.66,0,0,0-3.18-.22,27.67,27.67,0,0,0-4,.3c.09.34.17.69.26,1,.25,1,.49,2,.72,2.94l.06.22c.2.87.41,1.74.63,2.6,0,.17.09.34.13.51a25.12,25.12,0,0,1,3.78,0,26.71,26.71,0,0,1,2.63.68c.87.26,1.74.55,2.59.87a16,16,0,0,1,1.79.94c.7.44,1.36.93,2,1.4,1.14.8,2.31,1.54,3.45,2.34a37.38,37.38,0,0,1,3.7,3.31c1.26,1.3,2.44,2.66,3.59,4.05-.2-.25-.41-.5-.61-.76l2.08,2.58c1,1.32,2.05,2.62,3.05,3.94s2,2.67,2.95,4l0,0a75.91,75.91,0,0,1,5.38,8.49c1.48,2.67,2.72,5.48,3.95,8.27s2.38,5.83,3.48,8.78c1.18,3.16,2.24,6.36,3.45,9.51s2.49,6.22,3.49,9.4,2,6.37,3.12,9.53a93.47,93.47,0,0,0,4.22,10,70.56,70.56,0,0,0,4.66,8.64c1.13,1.71,2.37,3.36,3.53,5.05s2.53,3.41,3.88,5.07l.27.35a43.89,43.89,0,0,0,3.82,4.25,16.22,16.22,0,0,0,2.53,2.07,10.19,10.19,0,0,0,1.94.93,9.09,9.09,0,0,0,2.45.47,3.76,3.76,0,0,0,2.66-1C438.63,282.87,438.63,282.16,438.62,281.39Z" transform="translate(-211.85 -131.56)"/></svg>