<svg xmlns="http://www.w3.org/2000/svg" viewBox="0 0 573.29 230.97"><defs><style>.a{fill:#f4f4f4;}</style></defs><path class="a" d="M102.23,285.58l5.71.78,5.7.77L130,289.38l1.43.19,4.12.57,1.78.24.35.05,6.58.9c5.93.81,12.93,1.77,20,2.69,6,.79,12.11,1.57,18.17,2.31l7.53.93,10,1.23c1.85.22,3.74.42,5.56.62l2.62.28,5.06.54,2.94.31,9.56,1,7.65.81,18.53,2c5.72.63,11.37,1.29,18.11,2.09,2.9.35,5.84.68,8.69,1l7.24.82,2.43.29,6.09.7,1.42.15,7.52.81c7,.73,12.79,1.31,18.14,1.82l8.82.84h.12c2.18.2,4.4.43,6.54.65l2.23.22,3.67.37c4.11.42,8.36.84,12.53,1.24l1.85.17c2.31.22,4.69.44,7,.68,3.62.38,6.57.69,9.27,1l3.26.36c4.33.48,8.8,1,13.2,1.42l18.35,1.87c2.74.28,5.52.59,8,.86,3,.34,6,.66,8.91.95l4.8.5,3.61.37c2.35.24,5.14.52,8,.74l1.48.11,1.48.12.66.05c.48,0,1,.08,1.45.1l1.22.06,1.23.05.65,0,1.43.06,4.22.06a99.87,99.87,0,0,0,11.08-.51,52,52,0,0,0,9.22-1.81,39.14,39.14,0,0,0,7.81-3.11,30.71,30.71,0,0,0,3-1.87l.42-.29a18.18,18.18,0,0,0,1.75-1.4l.6-.52a14,14,0,0,0,1.23-1.2l.4-.42c.4-.43.76-.87,1.11-1.31l.39-.48a10.78,10.78,0,0,0,.81-1.18l.34-.51c.27-.42.51-.86.73-1.28l.3-.56a5.65,5.65,0,0,0,.31-.66c0-.1.08-.2.13-.3l.26-.62.27-.61a10.81,10.81,0,0,0,.45-1.32c.06-.2.12-.4.19-.6a11.17,11.17,0,0,0,.3-1.24l.12-.55c.1-.42.16-.85.22-1.27,0-.2.05-.39.08-.59.29-1.8.52-3.64.75-5.42l.27-2.11.14-1c.28-2.15.58-4.38.75-6.58.09-1.31.17-2.62.23-3.87s.17-2.64.28-3.92l0-.28c.08-.85.13-1.71.19-2.56l.09-1.33c.07-1,.23-2,.38-3,0-.25.07-.5.11-.74l0-.24c.34-2.34.7-4.76,1.23-7.11.63-2.77,1.27-5.31,1.94-7.77.36-1.31.73-2.62,1.1-3.93.27-1,.61-1.93.94-2.87l.33-.93c.9-2.61,1.71-5,2.5-7.34.44-1.35.88-2.71,1.3-4l1.13-3.5c.42-1.27.9-2.56,1.36-3.8s.92-2.5,1.33-3.75l0-.07c.82-2.46,1.66-5,2.36-7.54.4-1.42.78-2.86,1.15-4.29.18-.71.39-1.43.6-2.13l.33-1.18c.17-.61.34-1.21.5-1.82.54-2,1.1-4,1.77-6l.6-1.78c.67-2,1.37-4,2.15-6l0-.12c.33-.85.66-1.7,1-2.54.22-.58.49-1.15.75-1.71l.26-.57.78-1.56c1-1.94,2-4,3-5.94l.69-1.36c.33-.65.68-1.33,1-2q1-2.1,1.92-4.19c.53-1.15,1-2.35,1.57-3.64s1-2.61,1.59-4.16c.92-2.57,1.68-5.24,2.32-7.54.17-.64.34-1.27.5-1.91s.32-1.24.49-1.86l.16-.58c.29-1,.59-2.08.81-3.13l.08-.39c.51-2.44,1-5,1.38-7.47.1-.74.21-1.48.31-2.22a117.41,117.41,0,0,0,1.35-13.86,29.31,29.31,0,0,0-.11-3.19l-.1-1-.11-1a14.75,14.75,0,0,0-.3-1.72l-.15-.67a9.9,9.9,0,0,0-.36-1.29c0-.14-.09-.28-.13-.43l-.21-.69A4.85,4.85,0,0,0,541,116l-.16-.34-.21-.48-.21-.48a4.27,4.27,0,0,0-.33-.58l-.16-.26c-.42-.7-.85-1.38-1.32-2.07a45.48,45.48,0,0,0-2.84-3.79c-.57-.67-1-1.21-1.53-1.71l0,0-.87-.91c-.22-.23-.48-.46-.73-.68l-.37-.34a37.66,37.66,0,0,0-4.14-3.28,32.8,32.8,0,0,0-3.68-2.15A35.32,35.32,0,0,0,521,97.37a26.12,26.12,0,0,0-3.57-1.07c-.78-.18-1.61-.32-2.41-.46l-.5-.08c-.56-.08-1.13-.13-1.69-.17h-.08a34.47,34.47,0,0,0-5.62-.09l-.65.07c-1.47-.31-2.78-.55-4-.72l-.16,0-.15,0-.4-.06h0l-.33,0-.83-.1-2.27-.23c-.6-.06-1.23-.09-1.83-.13l-.57,0-.53,0-1.53-.09c-4.38-.18-10.15-.38-15.91-.37-1.92,0-3.88,0-5.76,0h-3.17c-.88,0-1.79,0-2.68,0l-1.25,0c-.92,0-1.87,0-2.79,0l-1.43.06c-1.14,0-2.32.07-3.44.15l-4.13.29c-.86.06-1.72.14-2.56.23l-1.24.12-2.8.28-1.14.12c-3.5.35-7,.81-10.33,1.24l-3.69.48-3.81.47c-3.52.44-7.16.89-10.66,1.4-3.17.46-5.57.82-7.8,1.17l-5.77.95-1.09.19c-3.5.59-7.1,1.14-10.58,1.69l-3.61.56c-4.37.69-8.68,1.5-12.83,2.29-1,.2-2.09.4-3.1.61l-2.62.51c-2.33.45-4.62.91-6.55,1.3l-1.08.22c-1.64.33-3.33.68-5,1l-4.4.8-2.21.41c-1.73.32-3.45.67-5.12,1l-1.3.27-6,1.23c-4.43.85-9,1.7-13.51,2.51l-5.4,1c-3.07.57-6.25,1.15-9.42,1.69-3.35.57-6.84,1.07-10.21,1.56l-4.17.61c-4,.59-8.46,1.14-14,1.71l-8,.85-1.7.18c-1.64.17-3.33.36-5,.52l-.63.06c-4.81.46-9.79.94-14.74,1.35-4.4.36-8.92.67-13.29,1l-2.31.16-4.89.32-2.8.19-4.42.31-3.42.25-7.9.53-1.21.07c-1.73.09-3.53.19-5.31.25-2.78.1-5.33.17-7.82.23s-5,.07-8.29.08h-2.69c-1.67,0-3.39,0-5.1,0-2.71,0-5.53-.06-8.37-.11-2.26,0-4.57-.14-6.81-.24l-.79,0c-5.16-.23-10.23-.46-15.42-.8l-3.11-.2c-4.37-.28-8.9-.57-13.35-.87-2.52-.18-5.07-.3-7.53-.41l-2.36-.12c-2-.1-4-.2-6-.26-5-.17-10.12-.21-15-.25h-1.13c-2.46,0-4.93,0-7.32.07h-.18l-7.54.13c-1.14,0-2.17,0-3.15.06-1.38,0-2.83.08-4.44.16-1,0-2,.1-3,.15l-1,.06-.33,0c-1.18.06-2.4.13-3.58.23-2.51.21-5,.48-7.16.71-2.46.27-4.83.63-7.06,1a131.1,131.1,0,0,0-13.8,2.66c-1.85.5-4,1.1-6.07,1.76s-4.09,1.37-5.78,2l-1.41.5c-.78.28-1.59.56-2.37.85-1.49.56-3,1.18-4.62,1.9-1.1.49-2.19,1.05-3.54,1.81-1.11.63-2.2,1.25-3.25,1.89L16,141c-1,.6-2,1.22-3,1.84s-2.18,1.45-3.06,2.06c-2.24,1.55-4.22,3.14-5.87,4.49l.17-.13a59.23,59.23,0,0,0-6.38,6c-.43.47-.82.91-1.17,1.34l-.43.51c-.34.41-.7.82-1,1.24-.79,1.1-1.52,2.19-2.17,3.26-.31.5-.61,1-.91,1.51-1.06,1.75-2.16,3.56-3.33,5.32-1.31,2-2.62,4.14-4,6.63-.29.52-.57,1.06-.83,1.58l-.42.81c-.37.71-.76,1.46-1.13,2.24-.69,1.43-1.31,2.9-1.91,4.32l-.33.77c-.23.49-.44.89-.64,1.25l-.37.65c-.17.29-.35.59-.51.89-.58,1.06-1.14,2.13-1.71,3.19l-.86,1.65c-.26.5-.51,1-.78,1.49-.56,1.08-1.06,2.18-1.56,3.31l-.29.61a32.51,32.51,0,0,0-2.31,5.9c-.17.72-.37,1.45-.56,2.15a39,39,0,0,0-1.05,4.7,21.45,21.45,0,0,0,.36,6.49c.21,1.3.44,2.6.66,3.9.15.89.31,1.77.46,2.65s.29,2,.45,3a23,23,0,0,1,.25,3.32c0,.44,0,.88,0,1.31,0,.59,0,1.21,0,1.81s.09,1.14.15,1.69a8.84,8.84,0,0,0,.59,2.08,13.21,13.21,0,0,0,.8,1.68,11.89,11.89,0,0,0,.76,1.19l.29.42c.8,1.19,1.67,2.39,2.42,3.42.49.66,1,1.33,1.45,2,1.26,1.74,2.56,3.54,3.92,5.3a4.65,4.65,0,0,0,2.22,1.14,8.54,8.54,0,0,0,1,.21,8.51,8.51,0,0,0,2,0l.2,0,.45.45,1.88,1.84c.36.34.76.69,1.14,1l.24.21.13.12a21.3,21.3,0,0,0,1.74,1.41c.52.38,1,.72,1.55,1.05s.9.52,1.37.77l.28.15c1,.55,2.12,1.09,3.17,1.61l1.48.74c1.65.86,3.33,1.77,5,2.71,2.06,1.16,4.21,2.3,6.59,3.47a65.8,65.8,0,0,0,6.65,2.72c2.78,1,5.42,1.87,8.08,2.6,1.16.32,2.37.57,3.55.82l.13,0c1.44.3,3,.63,4.51.92,3.14.6,6.08,1.13,9,1.61l5.22.84,3.39.54,4.46.73,3.79.62,5.81.95,11,1.79,2.55.42,5.49.88,2.43.37L91,284c1.07.17,2.15.32,3.11.45h.11l.1,0,.57.07,1.12.16,6.2.86Z" transform="translate(30.51 -93.7)"/></svg>