<svg xmlns="http://www.w3.org/2000/svg" viewBox="0 0 557.03 535"><defs><style>.a{fill:#f1ebeb;}</style></defs><path class="a" d="M106.52,528H149c6,0,13.05,0,20.14-.09,6-.06,12.21-.2,18.32-.39l7.58-.22,10-.3c1.86-.06,3.76-.19,5.59-.3l2.63-.17c1.7-.1,3.42-.21,5.09-.33l2.95-.19,9.61-.63,7.7-.5c5.6-.36,12.12-.78,18.62-1.15,5.76-.33,11.45-.57,18.23-.84,2.92-.12,5.88-.27,8.75-.43,2.38-.13,4.85-.26,7.27-.37L294,522c2-.08,4.09-.17,6.13-.29l1.43-.09,7.55-.48c7.07-.5,12.85-1,18.22-1.42,3-.26,6-.54,8.85-.82h.13c2.18-.2,4.41-.37,6.57-.54l2.23-.17,3.69-.29c4.13-.32,8.39-.66,12.58-1l1.86-.18c2.31-.21,4.71-.44,7.06-.61,3.64-.26,6.61-.46,9.33-.61l3.27-.18c4.35-.25,8.85-.5,13.27-.85,6.06-.48,12.26-.95,18.43-1.4,2.76-.2,5.56-.36,8-.5,3-.17,6.08-.38,8.95-.58l4.83-.36,3.62-.26c2.37-.17,5.17-.4,8-.77l1.48-.2,1.49-.2.65-.07c.49-.06,1-.12,1.45-.21l1.23-.24,1.22-.25.65-.12c.47-.09,1-.17,1.43-.3l4.18-1.12a53.94,53.94,0,0,0,10.91-4.39,38.94,38.94,0,0,0,8.89-6.68,46.82,46.82,0,0,0,7.31-9.09,52.42,52.42,0,0,0,2.68-4.93L492,482c.58-1.16,1.07-2.38,1.55-3.56.17-.44.35-.87.52-1.3.41-1,.73-2,1.05-3,.11-.34.22-.69.34-1,.35-1,.64-2.13.93-3.18.1-.39.21-.78.32-1.17.25-.92.45-1.87.64-2.79.09-.41.17-.81.26-1.22.22-1,.39-2,.56-3,.07-.43.14-.87.22-1.3s.15-1,.21-1.54l.09-.69.18-1.41.18-1.41c.13-1,.2-2,.27-3,0-.45.07-.9.1-1.35.08-.92.11-1.87.14-2.78,0-.41,0-.82,0-1.24,0-.94,0-1.9,0-2.83,0-.43,0-.86,0-1.29,0-4,0-8.06,0-12,0-1.56,0-3.12,0-4.67V424c0-4.75,0-9.67-.15-14.5-.08-2.89-.18-5.75-.29-8.49s-.19-5.77-.26-8.59v-.62c-.05-1.87-.1-3.74-.16-5.62,0-1-.07-2-.1-2.92-.06-2.22-.05-4.48,0-6.67,0-.55,0-1.1,0-1.65v-.53c0-5.18,0-10.54.25-15.81.25-6.19.54-11.9.87-17.43.17-3,.36-5.91.56-8.87.14-2.17.34-4.38.54-6.52.07-.71.13-1.41.2-2.12.53-5.94,1-11.3,1.48-16.7.26-3.05.5-6.14.74-9.14.22-2.64.43-5.28.65-7.92.24-2.89.54-5.83.82-8.67s.58-5.7.82-8.55v-.15c.47-5.6,1-11.38,1.31-17.09.2-3.2.39-6.44.56-9.65.09-1.61.19-3.24.3-4.81l.18-2.67.24-4.09c.27-4.42.54-9,.94-13.48l.36-4c.39-4.53.8-9.21,1.31-13.8l0-.28c.21-1.93.43-3.87.64-5.81.15-1.32.33-2.65.51-3.94.07-.44.13-.87.19-1.31l.56-3.62c.7-4.51,1.43-9.18,2.12-13.78.16-1.05.33-2.11.49-3.16.25-1.51.5-3.08.71-4.63.46-3.22.9-6.44,1.34-9.67.36-2.65.71-5.4,1.06-8.38s.67-6,1-9.49c.56-5.86,1-11.89,1.28-17.08l.24-4.29c.07-1.4.14-2.79.23-4.18l.08-1.31c.15-2.31.29-4.7.37-7l0-.88c.18-5.44.36-11.08.36-16.62V82.49c0-10,0-20.36-.54-30.52-.14-2.52-.32-4.78-.55-6.9l-.24-2.23-.24-2.24c-.13-1.22-.34-2.45-.54-3.64-.08-.47-.16-1-.23-1.42-.15-.91-.35-1.82-.54-2.7-.06-.29-.12-.58-.19-.87l-.3-1.46c-.1-.46-.24-.92-.37-1.37-.07-.22-.14-.45-.2-.67l-.28-1-.27-1a12.3,12.3,0,0,0-.41-1.16c-.07-.17-.13-.34-.19-.51-.51-1.41-1-2.76-1.6-4.12-.94-2.27-2-4.9-3.32-7.39-.65-1.28-1.21-2.31-1.75-3.25l0-.05-1-1.73c-.25-.43-.54-.86-.82-1.27L508,6.41A46.41,46.41,0,0,0,503.42.52a27.37,27.37,0,0,0-3.94-3.59,24.82,24.82,0,0,0-3.64-2.36,13.36,13.36,0,0,0-3.67-1.26A20.21,20.21,0,0,0,489.72-7l-.51,0a15.82,15.82,0,0,0-1.69.13h-.09a16.83,16.83,0,0,0-5.57,1.48c-.22.11-.44.22-.65.34a25.54,25.54,0,0,0-4.08-.36H476a8.34,8.34,0,0,0-.84,0l-2.27.18c-.62,0-1.24.16-1.84.26l-.57.09-.53.08c-.5.08-1,.16-1.52.26-4.37.92-10.11,2.19-15.82,3.93-1.91.58-3.84,1.2-5.7,1.8l-2.08.66-1.06.33c-.87.28-1.77.56-2.65.86l-1.23.41c-.92.3-1.86.6-2.77,1L435.75,5c-1.12.43-2.28.86-3.38,1.37l-4.06,1.85c-.84.38-1.68.83-2.5,1.26l-1.21.63c-.92.47-1.84,1-2.74,1.44l-1.11.6c-3.42,1.81-6.8,3.83-10.06,5.77L407.09,20l-3.71,2.16c-3.43,2-7,4-10.37,6.2-3.07,1.95-5.41,3.45-7.57,4.87-1.88,1.24-3.76,2.53-5.58,3.78l-1.06.73c-3.39,2.32-6.88,4.61-10.26,6.82l-3.49,2.29c-4.24,2.79-8.4,5.84-12.41,8.79-1,.74-2,1.51-3,2.25s-1.67,1.27-2.52,1.89c-2.24,1.66-4.45,3.35-6.31,4.77l-1.05.8c-1.57,1.21-3.2,2.46-4.84,3.64l-4.25,3.06-2.14,1.54c-1.67,1.21-3.33,2.49-4.93,3.73l-1.26,1-5.75,4.45c-4.28,3.18-8.67,6.37-13.05,9.48L298.34,96c-3,2.15-6,4.36-9.11,6.47-3.24,2.23-6.63,4.36-9.9,6.42-1.35.85-2.71,1.7-4.05,2.57-3.9,2.48-8.23,5-13.63,7.88l-7.84,4.22-1.67.91c-1.6.87-3.25,1.76-4.89,2.62l-.61.31c-4.7,2.44-9.57,5-14.42,7.32-4.31,2.09-8.74,4.11-13,6.06l-2.27,1-4.8,2.16-2.75,1.23c-1.45.65-2.92,1.34-4.34,2l-3.35,1.55c-2.54,1.15-5.16,2.35-7.76,3.51l-1.18.5c-1.71.72-3.47,1.46-5.23,2.13-2.74,1-5.26,2-7.72,2.82s-5,1.66-8.2,2.64l-2.66.82c-1.66.51-3.36,1-5.05,1.52-2.7.75-5.5,1.51-8.32,2.25-2.24.59-4.54,1.06-6.77,1.51l-.79.16c-5.15,1-10.2,2.05-15.39,2.86l-3.11.49c-4.37.69-8.89,1.4-13.34,2.07-2.52.38-5.06.87-7.51,1.35l-2.36.45c-2,.37-4,.75-5.93,1.2-5,1.14-10,2.56-14.92,3.93l-1.13.32c-2.44.69-4.88,1.52-7.24,2.33l-.17.05c-2.68.92-5.12,1.74-7.46,2.52-1.13.37-2.15.72-3.12,1.07-1.35.48-2.78,1-4.37,1.67-1,.39-2,.81-2.91,1.21l-1,.43-.32.14c-1.16.49-2.36,1-3.51,1.57-2.46,1.21-4.91,2.53-7,3.68-2.39,1.31-4.7,2.8-6.85,4.21A97.56,97.56,0,0,0,27,208c-1.76,1.64-3.83,3.59-5.77,5.62s-3.87,4.2-5.46,6c-.44.51-.89,1-1.33,1.51-.74.84-1.5,1.7-2.23,2.56-1.41,1.65-2.82,3.44-4.32,5.5-1,1.4-2,2.93-3.26,5-1,1.7-2,3.36-3,5.06l-.22.39c-.89,1.59-1.81,3.24-2.68,4.87-1,1.85-2,3.81-2.75,5.38-2,4-3.76,8.09-5.2,11.51l.14-.33c-2,4.81-3.89,9.84-5.51,15-.36,1.15-.68,2.22-1,3.27l-.36,1.23c-.28,1-.57,2-.82,3-.63,2.61-1.21,5.2-1.71,7.72-.23,1.18-.46,2.36-.7,3.54-.81,4.12-1.65,8.39-2.57,12.57-1,4.65-2,9.75-3.08,15.58-.21,1.22-.41,2.47-.6,3.67l-.3,1.9c-.27,1.64-.56,3.4-.82,5.21-.49,3.3-.91,6.67-1.31,9.93L-28,345.5c-.17,1.13-.31,2.05-.46,2.89-.09.5-.19,1-.28,1.52-.13.7-.27,1.4-.39,2.1l-1.26,7.43-.63,3.84c-.18,1.16-.37,2.32-.56,3.47-.42,2.51-.76,5.05-1.11,7.65l-.2,1.4c-.63,4.42-1.28,9-1.49,13.53-.07,1.61-.17,3.24-.26,4.82-.2,3.45-.4,7-.41,10.52a100.83,100.83,0,0,0,1.24,14q.59,4.14,1.19,8.28l.81,5.62q.42,3.21.86,6.42c.29,2.22.52,4.56.7,7.15.06.94.12,1.89.17,2.84.07,1.29.14,2.62.25,3.94s.24,2.45.38,3.61a32.83,32.83,0,0,0,.86,4.36c.28,1.09.61,2.2,1,3.41.27.79.6,1.58.92,2.34.11.28.23.55.34.83,1,2.35,2,4.7,2.86,6.71.58,1.3,1.14,2.6,1.71,3.91,1.49,3.4,3,6.92,4.6,10.34a3.84,3.84,0,0,0,2.36,1.82,4.09,4.09,0,0,0,1,.14,4,4,0,0,0,2-.54l.19-.12.5.84c.69,1.13,1.4,2.29,2.12,3.43.4.65.84,1.28,1.26,1.89l.27.39.15.21a26.59,26.59,0,0,0,1.91,2.56c.57.66,1.11,1.25,1.68,1.81a16,16,0,0,0,1.46,1.27l.3.24c1.09.88,2.24,1.73,3.36,2.55L3,506.08c1.75,1.38,3.54,2.87,5.31,4.41,2.19,1.91,4.48,3.74,7,5.58a42.7,42.7,0,0,0,7,3.94,53.18,53.18,0,0,0,8.37,3.24,30.37,30.37,0,0,0,3.61.73l.14,0c1.47.23,3,.47,4.6.65,3.19.38,6.17.64,9.12.82,1.76.11,3.55.2,5.28.28l3.43.16,4.53.26,3.84.23,5.88.33c3.66.21,7.45.43,11.17.62l2.59.14c1.82.1,3.7.2,5.56.27l2.45.09,2.33.08c1.08,0,2.17,0,3.14,0h1.91l6.27,0Z" transform="translate(35.05 7)"/></svg>