<svg xmlns="http://www.w3.org/2000/svg" viewBox="0 0 591.53 358.8"><defs><style>.a{fill:#d7824d;}.b{fill:#4a2a1b;}</style></defs><path class="a" d="M-42.74,148.2l-1.12,0c-.37,0-.73,0-1.09.07l-.29,0a8.43,8.43,0,0,0-1.12.18,7.39,7.39,0,0,0-1.21.47l-.16.07a7.26,7.26,0,0,0-1.5,1l-.1.08a11.28,11.28,0,0,0-.93.87c-.69.72-1.31,1.53-1.92,2.31l-.24.32a16.89,16.89,0,0,0-1.31,2,26.6,26.6,0,0,0-2,5c-.26.82-.56,1.64-.84,2.43s-.52,1.43-.76,2.15l0,.13a16.57,16.57,0,0,0-.58,2.09c-.19,1-.33,2-.44,3.09a33.82,33.82,0,0,0-.11,4.87,24.14,24.14,0,0,0,.54,4.15,3.73,3.73,0,0,0,.08,1.66l.14.33a4.4,4.4,0,0,0,.46.95c.07.11.14.24.2.36l0,0,.24.47.05.1a2.85,2.85,0,0,0-.12-.31,25.88,25.88,0,0,0,1.31,2.44c.42.72.85,1.46,1.22,2.22a19,19,0,0,1,.6,1.8l.12.47c.15.58.31,1.19.51,1.77s.35.91.53,1.34l.33.8a10.43,10.43,0,0,1,.51,2.3c.29,2,.58,3.65.91,5.14.12.53.26,1.07.4,1.6.19.75.4,1.53.54,2.31s.13,1.42.18,2.11l.06.67c.09,1.09.25,2.18.41,3.25.06.35.11.7.16,1.05.14,1,.38,2,.61,2.91l.14.58c.23,1,.41,1.87.55,2.77.17,1.5.31,3.12.47,5.25.13,1.75.4,3.51.65,5.22l.09.55c.25,2,.4,4.09.54,6.08l.15,2c.1,1.33.26,2.75.5,4.45.16,1.18.36,2.37.56,3.52.07.4.13.79.2,1.18.13,1.26.24,2.54.34,3.77.18,2.26.36,4.59.75,6.86.32,1.89.69,3.6,1.12,5.25l.15.54c.15.57.29,1.14.45,1.71a23.1,23.1,0,0,0,.82,2.3c.66,1.67,1.46,3.45,2.44,5.46A24.43,24.43,0,0,0-36,277.14a29.62,29.62,0,0,0,2.27,2.66c.61.63,1.23,1.22,1.84,1.76a51.55,51.55,0,0,0,4.21,3.22l.71.5,0,0c1.68,1.2,3.41,2.44,5.19,3.53a42,42,0,0,0,6,2.87l.28.11c.92.39,1.88.79,2.84,1.11s1.69.5,2.48.71,1.45.31,2.17.42l.57.1c1.23.21,2.42.36,3.55.44.33,0,.68,0,1.11,0h1.55l2.55-.06,3.28-.15,2-.1a80.14,80.14,0,0,0,9.46-1.17l.52-.08.94-.15,3.53-.6,1.24-.24c.94-.18,1.92-.36,2.88-.51,1.67-.19,3.06-.33,4.4-.43,1.66-.12,3.31-.14,4.71-.14h.55c3.07,0,6.18.12,9.19.23l1.37,0c1,0,2,.11,2.93.17.73.05,1.49.11,2.24.14s1.3.05,1.92.05a31,31,0,0,0,3.39-.17,24.9,24.9,0,0,0,3.39-.6,17.53,17.53,0,0,0,2.59-1l.16-.07a10.65,10.65,0,0,0,1.63-.9c.58-.39,1.14-.81,1.68-1.25a5.73,5.73,0,0,0,2.14-3.46l0-.15a6.54,6.54,0,0,0,.11-1.53c0-.41-.1-.83-.16-1.24l0-.26c-.06-.4-.15-.79-.25-1.19a21.3,21.3,0,0,0-2.25-5.3c-.79-1.4-1.58-2.74-2.52-4.35-1-1.78-1.93-3.19-2.81-4.44-1.06-1.49-2.24-3-3.37-4.36l-.44-.54a32.58,32.58,0,0,0-3.4-3.78c-1.14-1-2.32-2.2-3.71-3.69-.85-.91-1.74-1.82-2.59-2.7-1.56-1.61-3.18-3.27-4.66-5-.62-.73-1.24-1.48-1.84-2.21-1.05-1.36-1.93-2.6-2.69-3.8l-.32-.5c-.81-1.28-1.65-2.6-2.54-3.86-2-2.76-3.94-5.68-6-8.91-.74-1.13-1.45-2.3-2.15-3.43l-.68-1.12c-.83-1.35-1.68-2.67-2.71-4.24l-.46-.7c-.75-1.17-1.54-2.37-2.35-3.53l-.15-.23c-.4-.57-.82-1.17-1.24-1.74l-.09-.12c-.21-.28-.42-.57-.64-.85l-.12-.15-.28-.37-.2-.25-.24-.31a4.38,4.38,0,0,0-.59-.7,44.28,44.28,0,0,0-3.24-3.45c-1.37-1.3-2.53-2.47-3.54-3.57L8.75,201c-.92-1-1.87-2-2.88-3s-2.06-1.73-3.1-2.52l-.83-.63c-1.91-1.48-3.51-2.62-5-3.58-1.1-.7-2.27-1.34-3.4-2l-1-.56c-1.46-.82-2.95-1.7-4.57-2.69l-1.31-.78c-1-.59-2-1.19-2.95-1.83-.66-.44-1.42-.94-2.15-1.46a37.36,37.36,0,0,1-5.23-4.91,29.47,29.47,0,0,1-2.86-4.74,30.39,30.39,0,0,1-1.35-4c-.36-1.41-.75-2.91-1.19-4.37a32.71,32.71,0,0,0-2.05-5.33,12.19,12.19,0,0,0-1.12-1.75c-.39-.53-.76-1.1-1.14-1.74-.21-.36-.41-.74-.6-1.1l-.41-.76a13.61,13.61,0,0,0-1.76-2.5,8.13,8.13,0,0,0-1.31-1.1l-.32-.24a3.48,3.48,0,0,0-.68-.38l-.37-.15c-.25-.11-.5-.22-.74-.3a8,8,0,0,0-1.87-.35,12,12,0,0,0-1.26-.06Z" transform="translate(58.53 60)"/><path class="b" d="M192.3,124.89l-8.12,0c-2.56,0-5.12.06-7.66.24s-5.26.27-7.88.5c-1.1.1-2.19.17-3.28.28s-2.13.24-3.19.37c-5.63.72-11.23,1.67-16.86,2.45-2.84.32-5.7.58-8.51,1.11-2.51.48-5,1.14-7.45,1.72s-4.88,1.06-7.35,1.45c-2.68.44-5.36.89-8,1.44-1.44.29-2.89.57-4.34.82a32.6,32.6,0,0,0-4.25.95c-1.74.53-3.41,1.24-5.09,1.93-1.34.55-2.64,1.18-4,1.75-.6.24-1.19.48-1.78.76l-1.09.52c-1.1.43-2.22.85-3.31,1.31s-2.4,1-3.59,1.56c-2.27,1-4.57,1.91-6.83,2.9l-3.53,1.53c-1.18.51-2.33,1.1-3.49,1.66-2.24,1.08-4.49,2.16-6.67,3.35a73.19,73.19,0,0,0-6.48,3.9c-2.11,1.44-4.27,2.81-6.46,4.14a55.5,55.5,0,0,0-6.89,4.76,27.13,27.13,0,0,0-2.8,2.77,23.63,23.63,0,0,0-2.54,3.6c-.6,1-1.1,2-1.65,3.05s-1,1.89-1.54,2.85a50.83,50.83,0,0,0-3.23,7.33c-.79,2.33-1.54,4.67-2.29,7s-1.47,4.33-2.13,6.52c-.35,1.18-.66,2.38-1,3.56s-.72,2.35-1.08,3.52c-.64,2.12-1.31,4.24-1.76,6.41s-.75,4.68-1.24,7c-.25,1.15-.6,2.26-.93,3.39s-.71,2.5-1,3.76-.59,2.74-1,4.09-.82,2.81-1.17,4.24c-.15.64-.31,1.29-.43,1.94s-.26,1.5-.45,2.23a21.75,21.75,0,0,1-1.2,3.21c-.51,1.18-1.07,2.34-1.6,3.51-.68,1.49-1.29,3-1.91,4.54a17.33,17.33,0,0,0-.68,1.95c-.14.52-.24,1-.34,1.56a19.15,19.15,0,0,1-.84,3.25c-.54,1.07-1.15,2.11-1.75,3.15-.7,1.2-1.42,2.39-2.17,3.57l-2.26,3.54-1.07,1.72c-.26.42-.56.82-.86,1.22a11.61,11.61,0,0,1-1,1.08c-.44.4-.9.78-1.37,1.15-1.24.9-2.52,1.75-3.84,2.53-.76.45-1.52.9-2.32,1.28-.95.44-1.93.82-2.89,1.22l-.79.59a3.79,3.79,0,0,0-1,1.66,3.73,3.73,0,0,0,.39,2.9,3.93,3.93,0,0,0,2.33,1.73l1,.13a3.93,3.93,0,0,0,2-.51,42.62,42.62,0,0,0,4-1.77c1.1-.59,2.15-1.29,3.2-2,1.29-.82,2.52-1.75,3.73-2.68A17.17,17.17,0,0,0,11.76,275c.74-1,1.38-2,2-3s1.36-2.14,2-3.21c1.38-2.15,2.68-4.33,3.91-6.56a16.48,16.48,0,0,0,1.54-3.68c.25-1,.43-1.91.62-2.87a16.49,16.49,0,0,1,.91-2.84c.35-.87.7-1.74,1.06-2.61,1.09-2.39,2.24-4.77,3.19-7.22a20,20,0,0,0,.88-3.59c.23-1.2.53-2.4.86-3.59s.66-2.29,1-3.44.55-2.39.81-3.58c.54-2.39,1.4-4.7,1.91-7.1s.77-4.72,1.26-7.07c.44-2.12,1.12-4.21,1.75-6.29.35-1.14.73-2.28,1.06-3.44s.68-2.47,1-3.7c.65-2.17,1.42-4.3,2.11-6.46.51-1.58,1.06-3.16,1.56-4.74s1-3,1.62-4.53c.83-1.82,1.78-3.58,2.73-5.34a58,58,0,0,1,3.24-5.62A26.26,26.26,0,0,1,52.45,171c1.9-1.35,3.89-2.57,5.89-3.78s4.17-2.74,6.27-4.09A126,126,0,0,1,78,156c2.69-1.3,5.47-2.47,8.24-3.62,2.51-1.05,5-2.17,7.48-3.22l2.41-.94c1.11-.44,2.17-1,3.27-1.45l-.93.38c2-.82,4-1.74,6-2.58a32.66,32.66,0,0,1,6.65-1.92c2.64-.43,5.24-1,7.87-1.49s5-.79,7.5-1.27,5.09-1.07,7.61-1.71a74.66,74.66,0,0,1,7.41-1.47c1.78-.21,3.57-.38,5.35-.62s3.35-.47,5-.72c3.39-.5,6.78-1,10.18-1.51l1-.14c2.67-.32,5.37-.53,8-.72,1.29-.08,2.59-.12,3.87-.21s2.52-.16,3.79-.22c2.65-.12,5.3-.12,8-.13h8.11c3.09,0,6.17,0,9.25.26,2.19.32,4.36.73,6.55,1,2.58.39,5.16.8,7.73,1.27,2.37.43,4.69,1,7,1.65,1.27.34,2.52.7,3.79,1s2.39.64,3.57,1,2.48.88,3.7,1.36c1.48.63,2.92,1.33,4.38,2a23.68,23.68,0,0,1,3.36,1.82c.45.38.88.78,1.31,1.18.2.2.4.4.59.61s.27.28.41.42l.2.25-.1-.12.27.4a4.56,4.56,0,0,0,2.61,1.87,4,4,0,0,0,4.79-2.63,3.73,3.73,0,0,0-1.35-3.94l-.12-.15-.19-.25c.08.11.17.21.26.32a20,20,0,0,0-3.24-3.33,23.11,23.11,0,0,0-2.38-1.67,25.22,25.22,0,0,0-2.84-1.44c-2.3-1.07-4.6-2.12-7-3-1-.39-2.06-.78-3.12-1.11-1.24-.4-2.51-.73-3.78-1.06-2.34-.62-4.65-1.33-7-1.85-2.54-.56-5.09-1-7.66-1.42l-7.34-1.19a58.36,58.36,0,0,0-8.34-.86c-1.14,0-2.28,0-3.43,0Z" transform="translate(58.53 60)"/><path class="a" d="M363.2-22.61a3.65,3.65,0,0,0-.39,2.9,3.9,3.9,0,0,0,1.78,2.25q.65.39,1.26.81a39.81,39.81,0,0,1,3.13,3l3.31,3.44c2.3,2.41,4.68,4.76,7.11,7.06A39,39,0,0,0,383.66.33c.62.44,1.32.81,2,1.19s1.54.85,2.33,1.23,1.84.81,2.77,1.16,1.62.49,2.43.71c1.46.39,3,.61,4.47.88,6.25,1.1,12.48,2.33,18.66,3.77,3.14.73,6.22,1.66,9.31,2.59a83.08,83.08,0,0,0,9.15,1.94c1.62.3,3.21.65,4.81,1s2.93.76,4.4,1.12c2.86.68,5.75,1.19,8.63,1.75s5.72,1.26,8.53,2.08c3,.87,6,1.88,9,2.75,5.55,1.58,11.4,2,16.86,3.92a22.72,22.72,0,0,1,2.15,1.08c1,.6,2,1.24,3.06,1.86s1.75,1.08,2.63,1.6,1.94,1.09,2.88,1.68l5.94,3.68c1.67,1,3.34,2.05,4.94,3.19a17.09,17.09,0,0,1,1.56,1.51,16.57,16.57,0,0,1,1.51,2.53c.46,1.11.89,2.22,1.25,3.36.48,1.53,1,3.07,1.44,4.61s.9,2.79,1.38,4.17c.53,1.55,1.14,3.07,1.64,4.64a82.25,82.25,0,0,1,2.2,9.81c.59,3.17,1.42,6.29,2.26,9.4.48,1.8.92,3.6,1.36,5.41.39,1.61.68,3.24.93,4.87.53,4.24.74,8.5.94,12.76a47.51,47.51,0,0,1,0,6.2c-.18,2.15-.38,4.28-.64,6.42q-.84,5.72-1.94,11.38c-.37,1.9-.75,3.81-1.29,5.68a52.86,52.86,0,0,1-1.94,5.46c-.38.81-.76,1.6-1.16,2.4s-1,1.82-1.59,2.71c-1.25,2-2.55,4-3.79,6.08l-3.55,5.8a60.08,60.08,0,0,1-3.59,5.25,58.13,58.13,0,0,0-5.67,7.87c-1.6,2.85-3.13,5.74-4.52,8.69-.75,1.58-1.49,3.17-2.27,4.75-.69,1.42-1.47,2.79-2.23,4.18s-1.53,2.79-2.3,4.19-1.53,3-2.24,4.54c-1.48,3.14-2.73,6.36-4.07,9.56-1.64,3.69-3.25,7.39-4.87,11.09-1.33,2.93-2.76,5.81-4.12,8.73-.81,1.74-1.61,3.48-2.27,5.28-.57,1.53-1.1,3.08-1.56,4.65s-.77,3.08-1.13,4.63-.71,3.05-1,4.58-.63,3-1,4.52-.67,3.18-.95,4.79c-.55,3.23-1.15,6.46-1.63,9.7-.29,1.94-.54,3.89-.73,5.85-.18,1.73-.25,3.48-.31,5.22-.06,1.51-.11,3-.08,4.56a24.4,24.4,0,0,0,.86,5.68,44.34,44.34,0,0,0,1.41,4.46c.52,1.43,1.13,2.83,1.66,4.26s1,2.82,1.52,4.25a3.92,3.92,0,0,0,1.79,2.25,4,4,0,0,0,3,.38,3.77,3.77,0,0,0,2.72-4.63c-.86-2.56-1.81-5.09-2.83-7.6a45,45,0,0,1-2.24-7.42c0-.35-.07-.7-.1-1,0-.63,0-1.26,0-1.88,0-1.38.06-2.77.11-4.14.09-2.64.36-5.26.68-7.87.44-2.87.94-5.72,1.43-8.57.26-1.51.52-3,.84-4.52l1-4.56c.61-2.91,1.31-5.8,2-8.7a56.15,56.15,0,0,1,2.74-8.44c1.05-2.31,2.14-4.6,3.25-6.88,1.32-2.74,2.53-5.53,3.73-8.31,1.06-2.36,2.08-4.73,3.13-7.09s2-4.91,3.07-7.37c.56-1.22,1.12-2.45,1.71-3.66.75-1.51,1.55-3,2.36-4.48,1.46-2.7,3-5.36,4.31-8.14s2.77-5.81,4.28-8.65c.73-1.38,1.43-2.8,2.28-4.11s1.67-2.53,2.59-3.74,2.06-2.49,3-3.78,1.9-2.68,2.76-4.08c1.78-2.92,3.54-5.86,5.38-8.74a73,73,0,0,0,5-8.62q1.17-2.58,2.1-5.23c.48-1.36.83-2.76,1.18-4.16.76-3.07,1.22-6.21,1.78-9.32.65-3.61,1.18-7.24,1.56-10.88.16-1.56.28-3.12.37-4.68,0-.71,0-1.44,0-2.16s-.05-1.72-.09-2.58c-.08-1.71-.2-3.43-.28-5.14s-.17-3.26-.34-4.89c-.2-2-.48-4-.78-6-.22-1.51-.59-3-1-4.5-.79-3.25-1.71-6.46-2.49-9.72-.36-1.5-.7-3-1-4.54s-.59-3.29-1-4.92-.77-3.32-1.29-5-1.14-3.16-1.69-4.75c-1-2.81-1.76-5.67-2.71-8.49A48.6,48.6,0,0,0,518.48,40a17,17,0,0,0-3.59-5,19.86,19.86,0,0,0-2.44-2c-.73-.51-1.46-1-2.22-1.46-1.27-.79-2.53-1.6-3.81-2.37-1.46-.88-2.89-1.81-4.34-2.71s-2.74-1.6-4.1-2.41-2.6-1.61-3.91-2.4a27.84,27.84,0,0,0-5.13-2.47A36.38,36.38,0,0,0,484.62,18c-1.54-.35-3.08-.66-4.62-1s-3.21-.61-4.8-1-3-.75-4.55-1.2c-3.06-.93-6.1-1.95-9.19-2.79-5.65-1.53-11.48-2.31-17.15-3.76-1.51-.39-3-.81-4.54-1.15s-3.2-.62-4.8-.93-3-.57-4.47-.88c-1.65-.35-3.25-.85-4.86-1.33-2.71-.81-5.42-1.57-8.18-2.19s-5.36-1.19-8-1.74c-2.89-.58-5.8-1.12-8.71-1.65a50.87,50.87,0,0,1-8-1.81,34.37,34.37,0,0,1-5.35-3c-1.52-1.27-2.94-2.63-4.36-4s-3.11-3-4.59-4.57S375.43-18,374-19.56a27.12,27.12,0,0,0-5.43-4.4,3.61,3.61,0,0,0-1.9-.52,4,4,0,0,0-3.42,1.87Z" transform="translate(58.53 60)"/><path class="a" d="M229-1.08c0,.74,0,1.49,0,2.24a32.9,32.9,0,0,0,.38,3.7A24.1,24.1,0,0,1,229.29,9c-.14,1.53-.3,3.06-.34,4.6s-.07,3.12-.17,4.67c-.05.93-.13,1.86-.17,2.78,0,.7-.07,1.38-.13,2.07a18.15,18.15,0,0,1-.39,2.08c-.19.72-.41,1.43-.65,2.13-.67,1.69-1.47,3.3-2.29,4.9s-1.77,3.22-2.75,4.76a14.13,14.13,0,0,1-1.28,1.49,37.22,37.22,0,0,1-3,2.18A27.2,27.2,0,0,1,215,42.39c-2.7,1.27-5.48,2.31-8.23,3.43a43,43,0,0,1-8.61,2.44l.87-.14-1.64.26c-.91.12-1.81.26-2.72.4-2.08.31-4.15.71-6.23,1-2.33.35-4.66.63-7,1.13A40.11,40.11,0,0,0,174.9,53c-2.43,1-4.86,2-7.23,3.2a55.63,55.63,0,0,0-6.3,4.05c-1.41,1-2.79,2-4.12,3.11s-2.73,2.17-4.15,3.18a74.08,74.08,0,0,1-8.79,5.5,23.14,23.14,0,0,1-3.79,1.42c-1.47.37-2.94.7-4.42,1-2.67.54-5.34,1.12-8,1.56l-3.48.47c-1.16.15-2.34.2-3.5.27-2.57.15-5.14.17-7.71.29a45.9,45.9,0,0,0-8,1.13c-2.38.55-4.72,1.28-7,2.06s-4.69,1.61-7,2.4S86.77,84.27,84.48,85c-4.66,1.53-9.35,2.91-14.06,4.19-1.87.51-3.74,1-5.62,1.56s-3.57,1-5.39,1.34a18.18,18.18,0,0,1-4.17,0,17.22,17.22,0,0,1-3.65-1,10.92,10.92,0,0,1-1.35-.9,28,28,0,0,1-2.77-3.24c-.9-1.18-1.86-2.31-2.71-3.54l-.11-.17a26.6,26.6,0,0,1-1.49-2.73l-1.53-3a46.84,46.84,0,0,0-4-7,16.14,16.14,0,0,0-2.92-2.81c-.89-.72-1.82-1.39-2.73-2.08s-1.86-1.39-2.84-2-2-1.18-3.06-1.72c-1.92-1-3.88-1.88-5.84-2.81a33.64,33.64,0,0,1-3.06-1.77c-.53-.35-1.05-.73-1.58-1.11s-.87-.61-1.29-.94a14.43,14.43,0,0,1-1.56-1.91c-.38-.59-.75-1.18-1.09-1.8a17.23,17.23,0,0,1-1-2.08,48,48,0,0,1-1.81-9.51l-.24-2.09c-.33-2.84-.61-5.7-1-8.54s-.64-5.48-1.23-8.16a59.74,59.74,0,0,0-2.11-7.63c-1-2.9-2.17-5.72-3.44-8.49C.74,4.52.51,4.11.29,3.71a11.63,11.63,0,0,0-.61-1,11.73,11.73,0,0,0-1.17-1.6A7.46,7.46,0,0,0-4.28-.86a6.67,6.67,0,0,0-1.61-.29l-.83-.09A3,3,0,0,0-9-.13a4.07,4.07,0,0,0-1,2.66A4.09,4.09,0,0,0-9,5.19a3.23,3.23,0,0,0,2.32,1.1l.41,0,.11,0h0a6.06,6.06,0,0,1,.47.54,36.37,36.37,0,0,1,2.15,4.44c.52,1.21,1,2.44,1.47,3.68A62,62,0,0,1,.06,22.67c.58,2.64.93,5.32,1.26,8s.58,5.34.89,8l0-.11C2.83,44,3.27,49.63,5.63,54.49a30.39,30.39,0,0,0,2.25,3.68c.32.46.63.9,1,1.34a14.21,14.21,0,0,0,1.9,1.9,15.51,15.51,0,0,0,1.47,1.09c.53.39,1.08.77,1.62,1.15a26.1,26.1,0,0,0,3,1.76c1.3.66,2.63,1.25,3.95,1.86a51,51,0,0,1,5.7,3.13c1,.67,2,1.41,2.94,2.15.78.6,1.57,1.17,2.34,1.8.26.25.52.5.77.76s.41.5.6.76c.56.93,1.06,1.89,1.54,2.87s1.09,2.15,1.63,3.22.93,1.88,1.42,2.82c.23.45.45.9.7,1.34.4.71.86,1.37,1.32,2l-.05-.07c.6.89,1.22,1.76,1.89,2.58s1.36,1.82,2.08,2.69a22.38,22.38,0,0,0,3,3.12,12.39,12.39,0,0,0,3.5,2,16.5,16.5,0,0,0,3.56.92,21.66,21.66,0,0,0,4.4.35,34,34,0,0,0,7.57-1.48l6.89-1.91c2.3-.62,4.61-1.28,6.91-2,4.7-1.37,9.33-3,14-4.61,2.88-1,5.75-2,8.64-2.92,1.43-.46,2.87-.86,4.32-1.22,1.19-.31,2.4-.53,3.6-.72C115,84.31,120,84.63,125,84c2.66-.34,5.3-.75,7.94-1.27,2.31-.45,4.63-.88,6.93-1.39a32.7,32.7,0,0,0,3.59-.94,36.27,36.27,0,0,0,4.16-1.8,64.33,64.33,0,0,0,6.67-4A73,73,0,0,0,160.42,70c2-1.67,4.1-3.13,6.21-4.58.84-.58,1.69-1.15,2.55-1.69s1.68-1,2.53-1.39c1-.48,2.08-.9,3.12-1.33,1.23-.49,2.45-1,3.69-1.45a45.58,45.58,0,0,1,7.4-1.87c1.55-.21,3.1-.42,4.65-.67s2.86-.51,4.29-.74L196.7,56l2.1-.31A46.83,46.83,0,0,0,206.12,54c1.12-.36,2.22-.82,3.32-1.25l3.46-1.4c1.07-.43,2.15-.86,3.21-1.35,1.26-.59,2.51-1.2,3.75-1.85a25,25,0,0,0,2.44-1.54,27.05,27.05,0,0,0,3.19-2.51,14.1,14.1,0,0,0,1.25-1.31,23.56,23.56,0,0,0,1.53-2.26c.69-1.06,1.32-2.18,1.94-3.29s1.2-2.33,1.79-3.51a44.16,44.16,0,0,0,1.7-4.13,26.75,26.75,0,0,0,1.46-8c.05-1.35.17-2.7.23-4s.1-2.6.13-3.89c0-1.88.28-3.75.43-5.62a21.8,21.8,0,0,0,0-2.8c0-1-.19-1.88-.31-2.81-.1-1.16-.08-2.31-.1-3.47a3.58,3.58,0,0,0-3.28-3.76A3.58,3.58,0,0,0,229-1.08ZM197.2,48.41l-.61.1.61-.1Zm1.6,7.28-.15,0,.26,0-.11,0Zm.11,0,.62-.09-.62.09Z" transform="translate(58.53 60)"/><path class="b" d="M144.63-60h-1.09c-1.45,0-2.68,0-3.91.06a51.64,51.64,0,0,0-5.49.51l-2.21.34c-.68.11-1.36.27-2,.43l-.57.14c-1.77.42-3.22.75-4.58,1.05-1.57.34-3,.67-4.39,1.11-1.64.51-3.1,1-4.47,1.53l-3.3,1.31c-1.87.75-3.8,1.53-5.74,2.18-.85.29-1.76.55-2.86.81-.75.19-1.53.31-2.28.43l-.15,0c-2.82.35-5.81.64-9.14.88-1.86.13-3.42.23-5,.28-1,0-2,0-2.92.05l-1.75,0c-1.26,0-2.54.07-3.78.12l-.9,0-1.67.06c-1.07,0-2.18.07-3.27.14-2.91.17-5.86.47-8.72.76l-1,.1c-1.92.2-3.89.31-5.79.43l-3.77.24-2.78.21c-2.32.16-4.71.33-7.06.58a93,93,0,0,0-10.38,1.54c-2.28.5-4.58,1.11-6.8,1.7l-3.14.82c-1.33.34-2.78.68-4.44,1-.64.14-1.29.26-1.91.38-.89.17-1.81.35-2.7.57a27.3,27.3,0,0,0-5,1.93c-1.41.66-2.77,1.46-4.08,2.24l-.26.15-.89.53c-1.11.66-2.26,1.34-3.4,2L.53-33a36.74,36.74,0,0,0-3.88,2.35,42.07,42.07,0,0,0-4.54,3.73c-1.23,1.19-2.45,2.43-3.73,3.8-.54.58-1.08,1.18-1.61,1.76s-1.06,1.18-1.61,1.77L-16-18.38c-.72.76-1.46,1.54-2.18,2.33-1,1.15-2.08,2.36-3.07,3.54l-.31.37c-1,1.22-2.16,2.46-3.31,3.69s-2.61,2.54-3.93,3.72c-.88.78-1.78,1.59-2.64,2.42-.63.6-1.1,1.08-1.53,1.54-.14.15-.28.29-.41.44s-.41.42-.6.64a5.44,5.44,0,0,0-1.18,2.07,6.69,6.69,0,0,0-.09,3.1,19.24,19.24,0,0,0,.56,2.69,15.87,15.87,0,0,0,.74,1.92l0,.1A10.81,10.81,0,0,0-32.82,12l.3.44a18,18,0,0,0,1.64,2.2,30.15,30.15,0,0,0,4.22,3.81c1.22.91,2.51,1.72,3.65,2.43l1.53,1c.7.46,1.43.94,2.17,1.38a24.63,24.63,0,0,0,4.52,2.17,33.11,33.11,0,0,0,4.47,1.17,25.1,25.1,0,0,0,5.22.61,29.13,29.13,0,0,0,3.64-.31l.63-.09a38.2,38.2,0,0,1,4.6-.31,25.8,25.8,0,0,1,3,.17l.63.27c1,.44,2.09.9,3.16,1.26.6.2,1.2.38,1.79.56l.36.11.63.18c.41.12.84.24,1.25.38l.29.19c.31.3.62.63.91,1l.48.5c.57.59,1.2,1.18,1.94,1.81S20,34.43,21,35.17c.79.6,1.62,1.15,2.43,1.68l0,0a12.94,12.94,0,0,0,1.75.92,4.61,4.61,0,0,0,1.3.41l.16,0a7.48,7.48,0,0,0,1.15.12l.33,0c.43,0,.87-.11,1.29-.18l.08,0a6.27,6.27,0,0,0,1.35-.44A38.07,38.07,0,0,0,34.34,36c.59-.32,1.21-.66,1.82-1A40.21,40.21,0,0,1,41,33.48l.14,0C42,33.18,43,33,44,32.72l2.17-.52,1.36-.36c1.29-.33,2.62-.68,3.94-.95l2.08-.45c1.11-.25,2.27-.51,3.41-.7a21.44,21.44,0,0,1,2.65-.18,14.32,14.32,0,0,1,1.49.07c.78.15,1.56.35,2.31.55l1.38.34a22.48,22.48,0,0,1,3.82,1.26A25.22,25.22,0,0,1,73,34.46l.86.78c.84.76,1.71,1.55,2.63,2.25a20.25,20.25,0,0,0,3.6,2.12l.09,0a25.71,25.71,0,0,0,2.53,1.09,14.13,14.13,0,0,0,2.81.56l.25,0,.54.07c1.27.17,2.59.35,3.9.44s2.7.11,4,.13h.48l1.93,0c.94,0,1.8,0,2.64,0,1.54-.05,3.07-.24,4.55-.42,1-.13,2.1-.22,3.12-.31l1.35-.12c.86-.08,1.74-.14,2.59-.21l2.15-.17,2.46-.24,2.13-.21c2.7-.25,5.64-.59,9.24-1.08,2.36-.32,4.75-.73,7.07-1.12l2.88-.49,2.24-.37L146.6,36l1.18-.18h.06a82.13,82.13,0,0,1,8.78-.82c2.23-.07,4.43-.07,6.5-.07h2.64c1.33,0,2.77,0,4.53-.16a49.33,49.33,0,0,0,5.08-.6c1.47-.23,3-.5,4.6-.85,1.15-.25,2.31-.55,3.44-.84l1-.25c1.34-.34,2.72-.64,4.05-.92l.57-.13,2.18-.42c.79-.14,1.6-.29,2.39-.46,3.33-.74,6.05-1.4,8.57-2.07,3.06-.81,6.13-1.73,9.1-2.61,1.54-.46,3.08-.86,4.66-1.27.84-.21,1.68-.44,2.52-.66.64-.17,1.28-.35,1.92-.51,1.38-.36,2.94-.77,4.48-1.12.81-.19,1.65-.36,2.46-.52.66-.14,1.32-.27,2-.42A29.11,29.11,0,0,0,233.16,20l.5-.18c1.11-.4,2.27-.82,3.42-1.16l2-.57,1.75-.5c1.21-.36,2.49-.8,4.15-1.45.89-.34,1.77-.74,2.62-1.12l1.47-.65,1.11-.47a31.42,31.42,0,0,0,3.64-1.69,15.19,15.19,0,0,0,2-1.29c.71-.57,1.52-1.22,2.24-1.91A26.07,26.07,0,0,0,261,5.77c.87-1.18,1.79-2.35,2.74-3.5a26.39,26.39,0,0,1,2.76-2.93,44.58,44.58,0,0,0,6.47-6,53.64,53.64,0,0,0,3.21-4.46,34.88,34.88,0,0,0,2.38-4,24.78,24.78,0,0,0,1.91-5,20.47,20.47,0,0,0,.39-2.47l.05-.42c.06-.57.1-1.1.12-1.62a7.67,7.67,0,0,0-.08-1.17c0-.16,0-.32,0-.47s0-.57-.06-.86,0-.76-.07-1.13c-.21-1.86-.43-3.54-.69-5.15-.08-.5-.19-1-.31-1.54l-.06-.27a6.3,6.3,0,0,0-.18-.75A8.61,8.61,0,0,0,278-39a9.7,9.7,0,0,0-3.63-2.26l-.17-.07c-1.43-.68-2.77-1.26-4.09-1.78l-.82-.31c-.35-.13-.69-.25-1-.39-.58-.23-1.15-.48-1.72-.72l-.39-.16c-1.1-.47-2.24-.9-3.34-1.31l-.33-.12c-.68-.26-1.35-.54-2-.82s-1.1-.47-1.65-.68c-1.22-.48-2.49-.92-3.86-1.33-.9-.27-1.82-.57-2.71-.86l-1.38-.44a57.46,57.46,0,0,0-8.58-2.09,71.31,71.31,0,0,0-9.93-.84l-4.06,0h-.64c-.84,0-1.71.06-2.55.11l-1.74.1c-2.14.07-3.87.11-5.44.11s-2.92,0-4.25-.1-2.59-.19-3.85-.31l-.68-.07c-1.35-.12-2.78-.29-4.63-.55l-1-.13-.12,0L200-54.64c-1.53-.25-3.11-.5-4.67-.73h0l-.67-.1-2.36-.34.42.07c-2.42-.36-4.88-.67-7.26-1l-2.76-.35c-1.54-.24-3.1-.52-4.61-.79-1.23-.22-2.51-.45-3.77-.65-3.57-.58-7.15-.91-10.5-1.18-3.07-.24-6.12-.28-9.51-.3l-9.6,0ZM20.86,23.7a4,4,0,0,0-.62-1,4,4,0,0,1,.62,1Z" transform="translate(58.53 60)"/></svg>
