<svg xmlns="http://www.w3.org/2000/svg" viewBox="0 0 571.13 374.68"><defs><style>.a{fill:#d8b4af;}.b{fill:#9767c2;}</style></defs><path class="a" d="M28.66-91.4C14.71-89.6,2.89-78.67-10.26-75-41-71.06-63.06-51.29-66.89-13.66-75.33,25.65-50.74,58.48-46.13,95.7c-2.92,18.11,1.5,37.24,14.63,49.38,5.52,6.63,13.41,1.89,19.44-.34C4.76,133.2,6.61,109.41,11.27,89.12l0,.16C17.89,34.47,24,47.16,46.46,5.2,55.85-10,50.78-28.22,55.24-46.18,61.62-73,57.14-97.81,28.66-91.4Z" transform="translate(68.64 92.42)"/><path class="b" d="M108.48-50.91c-4.34,2.91.87,6,1,9.47-5.05,32.22-32.18,53.34-41,83.95C60.27,67.28,65.54,94,58.07,118.85,48,149.3,17.94,171.27-9.58,169.61c-3-1-7.75,1.43-5.17,5.51,3.34,2.19,8.29,1.47,12.19,1.88,30-5,61.45-28,68.27-64.4,5.07-23,1-47.33,8.92-69.87,9.27-25.58,28-45.11,38-70.49,2.64-6.86,5.56-23.86-4.16-23.15ZM65.71,112.6l0,.21,0-.25v0Zm0,0c0-.21.08-.42.13-.63l-.13.63Z" transform="translate(68.64 92.42)"/><path class="b" d="M499-44.82c-12.2,9.63-22.41,23.17-32.12,35.94-8,15-15.9,30.24-23.2,45.71-13.06,40.45-3.08,84.91,14,121.24,7.9,32.13-9.61,70.12,9.9,99.18,6.7,9.37,14.36,21,24.55,25,2.49-.51,3.28-4.43,1.1-5.91-8.32-6.18-15.38-14.39-21.2-23.48-18.79-30.25,2.19-69.5-10.37-101.51-15.74-32.11-23-71.43-13.92-107.71,3.35-10.72,9.45-20,14.37-29.89C466.75,4.18,471-5.71,478-13.51c6.54-8.08,13.61-15.61,20.58-23.2,3.63-1.68,6.44-8.18.47-8.11Z" transform="translate(68.64 92.42)"/></svg>